/* XPM */
static const char *xpm_3[] = {
"32 32 3 1",
"! c None",
"# c #000000",
"$ c #ffffff",
"!!!!!!!!!!!!#########!!!!!!!!!!!",
"!!!!!!!!!!##$$$$$$$$$##!!!!!!!!!",
"!!!!!!!!!###$$$$$$$$$###!!!!!!!!",
"!!!!!!!####$$$#$$$#$$$####!!!!!!",
"!!!!!!#####$$$#$$$#$$$####!!!!!!",
"!!!!!!#####$$$#$$$#$$$#####!!!!!",
"!!!!!######$$$$$$$$$$$######!!!!",
"!!!!#######$#$$###$$#$#######!!!",
"!!!!####!!#$$#$$#$$#$$#!!####!!!",
"!!!#####!!!#$###$###$#!!!#####!!",
"!!!####!!!!#$$#$$$#$$#!!!!####!!",
"!!!!##!!!!!####$#$###$#!!!!##!!!",
"!!!!!!!!!!##$$#$#$#$$$$#!!!!!!!!",
"!!!!!!!!!#$$$$#$#$#$$$$$###!!!!!",
"!!!!!!!##$$$$$#$#$#$$$$$$$$###!!",
"!!!!!##$$$$$$$$###$$$$$$$$$$$$#!",
"!!!##$$$$$$#$$$####$$$$#######!!",
"!!#$$$$$####$$$#$$$#$$$#!!!!!!!!",
"!!!#####!!!#$$$#$$$#$$$#!!!!!!!!",
"!!!!!!!!!!!#$$$#$$$$#$$#!!!!!!!!",
"!!!!########$$#$$$$$#$$#!!!!!!!!",
"!!!#$$$$$$$#$$#$$$$$#$$#!!!!!!!!",
"!!#$$$#######$##$$$$#$$$#!!!!!!!",
"!!####!!!!!!#$$#$$$$#$$$#!!!!!!!",
"!!!!!!!!!!!!#$$#$$###$$$#!!!!!!!",
"!!!!!!!!!!!##$$####!#$$$#!!!!!!!",
"!!!!!!!!!!!#$$##!!!!#$$$#!!!!!!!",
"!!!!!!!!!!!#$$#!!!!!#$$##!!!!!!!",
"!!!!!!!!!!!#$$#!!!!!##$#!!!!!!!!",
"!!!!!!!!!!!#$##!!!!!!###!!!!!!!!",
"!!!!!!!!!!!###!!!!!!!##!!!!!!!!!",
"!!!!!!!!!!!!!!!!!!!!!!!!!!!!!!!!"
};
